<?xml version="1.0" encoding="UTF-8" standalone="no"?>
<svg
   version="1.1"
   x="0px"
   y="0px"
   viewBox="0 0 85.400002 31.5"
   xml:space="preserve"
   id="svg12"
   sodipodi:docname="noun_Plug_728486.svg"
   width="85.400002"
   height="31.5"
   inkscape:version="1.1 (c68e22c387, 2021-05-23)"
   xmlns:inkscape="http://www.inkscape.org/namespaces/inkscape"
   xmlns:sodipodi="http://sodipodi.sourceforge.net/DTD/sodipodi-0.dtd"
   xmlns="http://www.w3.org/2000/svg"
   xmlns:svg="http://www.w3.org/2000/svg"><defs
     id="defs16" /><sodipodi:namedview
     id="namedview14"
     pagecolor="#ffffff"
     bordercolor="#666666"
     borderopacity="1.0"
     inkscape:pageshadow="2"
     inkscape:pageopacity="0.0"
     inkscape:pagecheckerboard="0"
     showgrid="false"
     fit-margin-top="0"
     fit-margin-left="0"
     fit-margin-right="0"
     fit-margin-bottom="0"
     inkscape:zoom="6.208"
     inkscape:cx="42.767397"
     inkscape:cy="28.189433"
     inkscape:window-width="1920"
     inkscape:window-height="1011"
     inkscape:window-x="0"
     inkscape:window-y="0"
     inkscape:window-maximized="1"
     inkscape:current-layer="svg12" /><g
     id="g6"
     transform="translate(-7.3,-34.3)"><path
       d="m 20.1,52.5 c 1.2,7.5 7.6,13.2 15.4,13.2 H 41 c 1.4,0 2.5,-1.1 2.5,-2.5 V 36.8 c 0,-1.4 -1.1,-2.5 -2.5,-2.5 H 35.6 C 27.8,34.3 21.3,40 20.2,47.5 H 9.8 c -1.4,0 -2.5,1.1 -2.5,2.5 0,1.4 1.1,2.5 2.5,2.5 z M 35.7,39.3 h 3 v 21.5 h -3 C 29.8,60.7 25,55.9 25,50 24.8,44.1 29.8,39.3 35.7,39.3 Z"
       id="path2" /><path
       d="m 50.7,54.2 c -1.4,0 -2.5,1.1 -2.5,2.5 0,1.4 1.1,2.5 2.5,2.5 h 5.8 v 4.1 c 0,1.4 1.1,2.5 2.5,2.5 h 5.4 c 7.8,0 14.3,-5.7 15.4,-13.2 h 10.4 c 1.4,0 2.5,-1.1 2.5,-2.5 0,-1.4 -1.1,-2.5 -2.5,-2.5 H 79.9 C 78.7,40.1 72.3,34.4 64.5,34.4 H 59 c -1.4,0 -2.5,1.1 -2.5,2.5 V 41 h -5.8 c -1.4,0 -2.5,1.1 -2.5,2.5 0,1.4 1.1,2.5 2.5,2.5 h 5.8 v 8.2 z M 61.3,39.3 h 3 c 5.9,0 10.7,4.8 10.7,10.7 0,5.9 -4.8,10.7 -10.7,10.7 h -3 c 0,0 0,-21.4 0,-21.4 z"
       id="path4" /></g></svg>
