<?xml version="1.0" encoding="UTF-8" standalone="no"?>
<svg
   xmlns:dc="http://purl.org/dc/elements/1.1/"
   xmlns:cc="http://creativecommons.org/ns#"
   xmlns:rdf="http://www.w3.org/1999/02/22-rdf-syntax-ns#"
   xmlns:svg="http://www.w3.org/2000/svg"
   xmlns="http://www.w3.org/2000/svg"
   xmlns:sodipodi="http://sodipodi.sourceforge.net/DTD/sodipodi-0.dtd"
   xmlns:inkscape="http://www.inkscape.org/namespaces/inkscape"
   xml:space="preserve"
   version="1.1"
   style="clip-rule:evenodd;fill-rule:evenodd;image-rendering:optimizeQuality;shape-rendering:geometricPrecision;text-rendering:geometricPrecision"
   viewBox="0 0 679 526"
   x="0px"
   y="0px"
   id="svg14"
   sodipodi:docname="noun_group_2310407.svg"
   width="679"
   height="526"
   inkscape:version="0.92.4 (unknown)"><metadata
     id="metadata18"><rdf:RDF><cc:Work
         rdf:about=""><dc:format>image/svg+xml</dc:format><dc:type
           rdf:resource="http://purl.org/dc/dcmitype/StillImage" /><dc:title></dc:title></cc:Work></rdf:RDF></metadata><sodipodi:namedview
     pagecolor="#ffffff"
     bordercolor="#666666"
     borderopacity="1"
     objecttolerance="10"
     gridtolerance="10"
     guidetolerance="10"
     inkscape:pageopacity="0"
     inkscape:pageshadow="2"
     inkscape:window-width="3840"
     inkscape:window-height="2031"
     id="namedview16"
     showgrid="false"
     fit-margin-top="0"
     fit-margin-left="0"
     fit-margin-right="0"
     fit-margin-bottom="0"
     inkscape:zoom="0.22290437"
     inkscape:cx="339.5"
     inkscape:cy="156.625"
     inkscape:window-x="0"
     inkscape:window-y="55"
     inkscape:window-maximized="1"
     inkscape:current-layer="svg14" /><defs
     id="defs4"><style
       type="text/css"
       id="style2">
   
    .fil0 {fill:black}
   
  </style></defs><g
     id="g8"
     transform="translate(-84,-160)"><path
       class="fil0"
       d="m 726,466 c -23,-23 -55,-37 -90,-37 -12,0 -24,1 -36,5 -5,1 -11,4 -16,6 26,34 42,77 42,124 v 83 h 137 v -92 c 0,-34 -14,-66 -37,-89 z M 303,444 c -30,30 -49,73 -49,120 V 686 H 593 V 564 c 0,-47 -19,-90 -50,-120 -31,-31 -73,-50 -120,-50 -46,0 -89,19 -120,50 z m -92,-15 c -35,0 -67,14 -90,37 -23,23 -37,55 -37,89 v 92 h 137 v -83 c 0,-47 16,-90 42,-124 -5,-2 -11,-5 -17,-6 -11,-4 -23,-5 -35,-5 z M 569,326 c 0,18 8,35 20,47 12,12 29,20 47,20 19,0 35,-8 47,-20 12,-12 20,-29 20,-47 0,-19 -8,-35 -20,-47 -12,-12 -28,-20 -47,-20 -18,0 -35,8 -47,20 -12,12 -20,28 -20,47 z M 360,313 c 16,16 39,26 63,26 25,0 47,-10 64,-26 16,-16 26,-38 26,-63 0,-25 -10,-47 -26,-63 -17,-17 -39,-27 -64,-27 -24,0 -47,10 -63,27 -16,16 -26,38 -26,63 0,25 10,47 26,63 z m -216,13 c 0,18 7,35 19,47 12,12 29,20 48,20 18,0 35,-8 47,-20 12,-12 19,-29 19,-47 0,-19 -7,-35 -19,-47 -12,-12 -29,-20 -47,-20 -19,0 -36,8 -48,20 -12,12 -19,28 -19,47 z"
       id="path6"
       inkscape:connector-curvature="0"
       style="fill:#000000" /></g></svg>